<?xml version="1.0" encoding="iso-8859-1"?>
<!-- Generator: Adobe Illustrator 19.0.0, SVG Export Plug-In . SVG Version: 6.00 Build 0)  -->
<svg version="1.1" id="Capa_1" xmlns="http://www.w3.org/2000/svg" xmlns:xlink="http://www.w3.org/1999/xlink" x="0px" y="0px"
	 viewBox="0 0 166.237 166.237" style="enable-background:new 0 0 166.237 166.237;" xml:space="preserve">
<g>
	<path style="fill:#010002;" d="M100.152,166.237h-34.06v-24.964c-4.18-1.225-8.216-2.903-12.048-5.005l-17.661,17.657
		l-24.08-24.073l17.657-17.665c-2.098-3.824-3.768-7.856-4.997-12.051H0V66.085h24.967c1.221-4.18,2.896-8.212,4.997-12.044
		L12.304,36.384l24.08-24.088l17.661,17.657c3.817-2.094,7.849-3.765,12.048-4.997V0h34.06v24.956
		c4.192,1.233,8.227,2.903,12.044,4.997l17.657-17.657l24.088,24.088L136.28,54.041c2.094,3.817,3.768,7.849,4.997,12.044h24.96
		v34.052h-24.96c-1.233,4.203-2.903,8.242-4.993,12.051l17.657,17.665l-24.088,24.073L112.2,136.269
		c-3.839,2.109-7.871,3.779-12.048,5.005V166.237z M73.696,158.634h18.853v-23.286l2.918-0.698
		c5.409-1.292,10.577-3.438,15.363-6.371l2.558-1.574l16.466,16.469l13.336-13.321l-16.48-16.484l1.578-2.562
		c2.918-4.722,5.06-9.89,6.371-15.355l0.702-2.918h23.275V73.688h-23.275l-0.702-2.918c-1.307-5.443-3.449-10.611-6.371-15.363
		l-1.574-2.554l16.477-16.469l-13.336-13.336l-16.466,16.469l-2.558-1.574c-4.748-2.911-9.92-5.057-15.37-6.371l-2.911-0.705V7.603
		H73.696v23.263l-2.911,0.705c-5.461,1.314-10.633,3.46-15.37,6.371l-2.554,1.574L36.384,23.048L23.055,36.384l16.477,16.469
		l-1.574,2.554c-2.933,4.774-5.075,9.942-6.371,15.363l-0.698,2.918H7.603v18.845h23.286l0.698,2.918
		c1.299,5.45,3.442,10.611,6.371,15.355l1.578,2.562l-16.48,16.484l13.328,13.321l16.477-16.469l2.554,1.574
		c4.774,2.933,9.942,5.079,15.363,6.371l2.918,0.698V158.634z"/>
	<g>
		<path style="fill:#010002;" d="M83.119,119.532c-20.078,0-36.414-16.336-36.414-36.414s16.336-36.414,36.414-36.414
			s36.414,16.336,36.414,36.414S103.196,119.532,83.119,119.532z M83.119,54.308c-15.886,0-28.81,12.927-28.81,28.81
			s12.924,28.81,28.81,28.81s28.81-12.927,28.81-28.81S99.005,54.308,83.119,54.308z"/>
		<path style="fill:#010002;" d="M83.119,107.637c-13.51,0-24.503-10.997-24.503-24.518S69.608,58.6,83.119,58.6
			c13.518,0,24.518,10.997,24.518,24.518S96.636,107.637,83.119,107.637z M83.119,66.204c-9.319,0-16.9,7.589-16.9,16.915
			s7.581,16.915,16.9,16.915c9.326,0,16.915-7.589,16.915-16.915S92.445,66.204,83.119,66.204z"/>
	</g>
</g>
<g>
</g>
<g>
</g>
<g>
</g>
<g>
</g>
<g>
</g>
<g>
</g>
<g>
</g>
<g>
</g>
<g>
</g>
<g>
</g>
<g>
</g>
<g>
</g>
<g>
</g>
<g>
</g>
<g>
</g>
</svg>
