<?xml version="1.0" ?><svg fill="none" height="64" viewBox="0 0 64 64" width="64" xmlns="http://www.w3.org/2000/svg"><path clip-rule="evenodd" d="M40.7421 14.6964C41.2106 14.9631 41.5 15.4608 41.5 16V48C41.5 48.5392 41.2106 49.0369 40.7421 49.3036C40.2735 49.5703 39.6978 49.5651 39.2342 49.2898L23.5882 40H20C16.9624 40 14.5 37.5376 14.5 34.5V29.5C14.5 26.4624 16.9624 24 20 24H23.5882L39.2342 14.7102C39.6978 14.4349 40.2735 14.4297 40.7421 14.6964ZM38.5 18.6351L24.7658 26.7898C24.5341 26.9274 24.2695 27 24 27H20C18.6193 27 17.5 28.1193 17.5 29.5V34.5C17.5 35.8807 18.6193 37 20 37H24C24.2695 37 24.5341 37.0726 24.7658 37.2102L38.5 45.3649V18.6351Z" fill="black" fill-rule="evenodd"/><path d="M55.0607 26.9393C55.6464 27.5251 55.6464 28.4749 55.0607 29.0607L52.1213 32L55.0607 34.9393C55.6464 35.5251 55.6464 36.4749 55.0607 37.0607C54.4749 37.6464 53.5251 37.6464 52.9393 37.0607L50 34.1213L47.0607 37.0607C46.4749 37.6464 45.5251 37.6464 44.9393 37.0607C44.3536 36.4749 44.3536 35.5251 44.9393 34.9393L47.8787 32L44.9393 29.0607C44.3536 28.4749 44.3536 27.5251 44.9393 26.9393C45.5251 26.3536 46.4749 26.3536 47.0607 26.9393L50 29.8787L52.9393 26.9393C53.5251 26.3536 54.4749 26.3536 55.0607 26.9393Z" fill="black"/></svg>