<?xml version="1.0" encoding="UTF-8" standalone="no"?>
<svg
   sodipodi:docname="2. Color Palette.svg"
   inkscape:version="1.1 (1:1.1+202106031931+af4d65493e)"
   id="svg831"
   version="1.1"
   viewBox="0 0 22.577778 22.577778"
   height="64pt"
   width="64pt"
   inkscape:export-filename="/media/taufikramadhan/Data/Tr Design Studio/Project Design/TR Creative Design/Icon Design/Project Hiring/Icon Icons/007 - Design And Development/Send/1 - Line/SVG/2. Color Palette.png"
   inkscape:export-xdpi="576"
   inkscape:export-ydpi="576"
   xmlns:inkscape="http://www.inkscape.org/namespaces/inkscape"
   xmlns:sodipodi="http://sodipodi.sourceforge.net/DTD/sodipodi-0.dtd"
   xmlns="http://www.w3.org/2000/svg"
   xmlns:svg="http://www.w3.org/2000/svg"
   xmlns:rdf="http://www.w3.org/1999/02/22-rdf-syntax-ns#"
   xmlns:cc="http://creativecommons.org/ns#"
   xmlns:dc="http://purl.org/dc/elements/1.1/">
  <defs
     id="defs825">
    <pattern
       y="0"
       x="0"
       height="6"
       width="6"
       patternUnits="userSpaceOnUse"
       id="EMFhbasepattern" />
    <pattern
       y="0"
       x="0"
       height="6"
       width="6"
       patternUnits="userSpaceOnUse"
       id="EMFhbasepattern-9" />
    <pattern
       y="0"
       x="0"
       height="6"
       width="6"
       patternUnits="userSpaceOnUse"
       id="EMFhbasepattern-0" />
    <pattern
       y="0"
       x="0"
       height="6"
       width="6"
       patternUnits="userSpaceOnUse"
       id="EMFhbasepattern-7" />
    <pattern
       y="0"
       x="0"
       height="6"
       width="6"
       patternUnits="userSpaceOnUse"
       id="EMFhbasepattern-2" />
    <pattern
       y="0"
       x="0"
       height="6"
       width="6"
       patternUnits="userSpaceOnUse"
       id="EMFhbasepattern-98" />
    <pattern
       y="0"
       x="0"
       height="6"
       width="6"
       patternUnits="userSpaceOnUse"
       id="EMFhbasepattern-6" />
    <pattern
       y="0"
       x="0"
       height="6"
       width="6"
       patternUnits="userSpaceOnUse"
       id="EMFhbasepattern-01" />
    <pattern
       y="0"
       x="0"
       height="6"
       width="6"
       patternUnits="userSpaceOnUse"
       id="EMFhbasepattern-07" />
    <pattern
       y="0"
       x="0"
       height="6"
       width="6"
       patternUnits="userSpaceOnUse"
       id="EMFhbasepattern-8" />
    <pattern
       y="0"
       x="0"
       height="6"
       width="6"
       patternUnits="userSpaceOnUse"
       id="EMFhbasepattern-4" />
    <pattern
       y="0"
       x="0"
       height="6"
       width="6"
       patternUnits="userSpaceOnUse"
       id="EMFhbasepattern-40" />
    <pattern
       y="0"
       x="0"
       height="6"
       width="6"
       patternUnits="userSpaceOnUse"
       id="EMFhbasepattern-08" />
    <pattern
       y="0"
       x="0"
       height="6"
       width="6"
       patternUnits="userSpaceOnUse"
       id="EMFhbasepattern-04" />
    <pattern
       y="0"
       x="0"
       height="6"
       width="6"
       patternUnits="userSpaceOnUse"
       id="EMFhbasepattern-014" />
    <pattern
       y="0"
       x="0"
       height="6"
       width="6"
       patternUnits="userSpaceOnUse"
       id="EMFhbasepattern-27" />
    <pattern
       y="0"
       x="0"
       height="6"
       width="6"
       patternUnits="userSpaceOnUse"
       id="EMFhbasepattern-09" />
    <pattern
       y="0"
       x="0"
       height="6"
       width="6"
       patternUnits="userSpaceOnUse"
       id="EMFhbasepattern-5" />
    <pattern
       y="0"
       x="0"
       height="6"
       width="6"
       patternUnits="userSpaceOnUse"
       id="EMFhbasepattern-018" />
  </defs>
  <sodipodi:namedview
     inkscape:document-rotation="0"
     inkscape:snap-global="true"
     inkscape:snap-nodes="true"
     inkscape:bbox-nodes="true"
     inkscape:snap-bbox="true"
     showguides="false"
     inkscape:snap-midpoints="true"
     inkscape:snap-smooth-nodes="true"
     inkscape:snap-intersection-paths="true"
     inkscape:object-paths="true"
     inkscape:showpageshadow="false"
     inkscape:pagecheckerboard="true"
     inkscape:window-maximized="1"
     inkscape:window-y="31"
     inkscape:window-x="0"
     inkscape:window-height="705"
     inkscape:window-width="1366"
     units="pt"
     showgrid="false"
     inkscape:current-layer="layer1"
     inkscape:document-units="pt"
     inkscape:cy="42.755299"
     inkscape:cx="34.631792"
     inkscape:zoom="2.3388914"
     inkscape:pageshadow="2"
     inkscape:pageopacity="0.0"
     borderopacity="1.0"
     bordercolor="#666666"
     pagecolor="#ffffff"
     id="base">
    <inkscape:grid
       id="grid1378"
       type="xygrid" />
    <sodipodi:guide
       inkscape:locked="false"
       id="guide1380"
       orientation="78.000048,0"
       position="0.97013831,21.607643" />
    <sodipodi:guide
       inkscape:locked="false"
       id="guide1382"
       orientation="0,78.000005"
       position="0.97013831,0.97013129" />
    <sodipodi:guide
       inkscape:locked="false"
       id="guide1384"
       orientation="-78.000048,0"
       position="21.607639,0.97013129" />
    <sodipodi:guide
       inkscape:locked="false"
       id="guide1386"
       orientation="0,-78.000005"
       position="21.607639,21.607643" />
  </sodipodi:namedview>
  <metadata
     id="metadata828">
    <rdf:RDF>
      <cc:Work
         rdf:about="">
        <dc:format>image/svg+xml</dc:format>
        <dc:type
           rdf:resource="http://purl.org/dc/dcmitype/StillImage" />
      </cc:Work>
    </rdf:RDF>
  </metadata>
  <g
     transform="translate(0,-274.42223)"
     id="layer1"
     inkscape:groupmode="layer"
     inkscape:label="Icon">
    <path
       id="path171"
       style="color:#000000;font-style:normal;font-variant:normal;font-weight:normal;font-stretch:normal;font-size:medium;line-height:normal;font-family:sans-serif;font-variant-ligatures:normal;font-variant-position:normal;font-variant-caps:normal;font-variant-numeric:normal;font-variant-alternates:normal;font-variant-east-asian:normal;font-feature-settings:normal;font-variation-settings:normal;text-indent:0;text-align:start;text-decoration:none;text-decoration-line:none;text-decoration-style:solid;text-decoration-color:#000000;letter-spacing:normal;word-spacing:normal;text-transform:none;writing-mode:lr-tb;direction:ltr;text-orientation:mixed;dominant-baseline:auto;baseline-shift:baseline;text-anchor:start;white-space:normal;shape-padding:0;shape-margin:0;inline-size:0;clip-rule:nonzero;display:inline;overflow:visible;visibility:visible;opacity:1;isolation:auto;mix-blend-mode:normal;color-interpolation:sRGB;color-interpolation-filters:linearRGB;solid-color:#000000;solid-opacity:1;vector-effect:none;fill:#352E2E;fill-opacity:1;fill-rule:nonzero;stroke:none;stroke-width:0.665723;stroke-linecap:round;stroke-linejoin:round;stroke-miterlimit:4;stroke-dasharray:none;stroke-dashoffset:0;stroke-opacity:1;color-rendering:auto;image-rendering:auto;shape-rendering:auto;text-rendering:auto;enable-background:accumulate;stop-color:#000000;stop-opacity:1"
       d="m 2.2231813,275.39237 c -0.2755363,-9e-5 -0.5528955,0.10756 -0.7619433,0.3166 -0.2090605,0.20907 -0.3166736,0.48644 -0.3166069,0.76195 6.3e-6,0.27535 0.107476,0.55283 0.3166069,0.76194 l 5.1743054,5.1769 c -0.8453652,0.33252 -1.7743586,0.89967 -2.4763064,1.87495 -0.8320474,1.15604 -1.3203391,2.86591 -1.0096363,5.32448 a 0.33289489,0.33289489 0 0 0 0.00264,0.0176 c 0,0 0.2884741,1.60839 1.5921426,3.2012 1.3036723,1.5928 3.6465175,3.18127 7.6441117,3.20184 0.0039,5e-5 2.203398,0.0239 4.435119,-1.15201 2.23369,-1.17701 4.50631,-3.60824 4.609349,-8.32738 a 0.33289489,0.33289489 0 0 0 0,-0.0221 c -0.215901,-4.30082 -2.065593,-6.79828 -4.026843,-8.17004 -1.961249,-1.37178 -3.963796,-1.64593 -4.702967,-1.62206 a 0.33289489,0.33289489 0 0 0 -0.01044,0 c -1.204129,0.0701 -1.968779,0.38976 -2.412594,0.88222 -0.4438147,0.49244 -0.5136332,1.11768 -0.4401324,1.64415 0.059267,0.42446 0.1602994,0.9515 0.1696814,1.4127 0.0094,0.46122 -0.081483,0.80236 -0.267849,0.94853 -0.023136,0.0181 -0.04919,0.0342 -0.074112,0.0513 -0.1966409,-0.15395 -0.3995079,-0.30028 -0.6111134,-0.43494 l -0.068916,-0.0442 a 0.33289489,0.33289489 0 0 0 -0.2067381,-0.0513 0.33289489,0.33289489 0 0 0 -0.1202704,0.0345 l -0.1053247,0.054 c -0.00969,0.005 -0.018909,0.0101 -0.028608,0.0156 l -5.5416209,-5.53968 c -0.2090542,-0.20896 -0.4865367,-0.31654 -0.7619396,-0.3166 z m 0,0.66573 c 0.1061047,2e-5 0.2106217,0.0384 0.2925515,0.12027 l 5.4376033,5.43955 c -0.2168214,0.17052 -0.4127464,0.36556 -0.5838072,0.58186 l -5.4389029,-5.4363 c -0.081887,-0.0819 -0.1202704,-0.18651 -0.1202704,-0.29256 -2.64e-5,-0.10606 0.038308,-0.21058 0.1202704,-0.29255 0.081962,-0.082 0.1865362,-0.12027 0.2925553,-0.12027 z m 10.5065867,1.34184 c 0.51214,-0.0152 2.484213,0.23697 4.295342,1.50372 1.813234,1.26825 3.529543,3.52857 3.739491,7.64672 -0.1034,4.50325 -2.182298,6.64728 -4.250485,7.73708 -2.070773,1.09115 -4.121111,1.07659 -4.121111,1.07659 a 0.33289489,0.33289489 0 0 0 -0.002,0 c -3.8250363,-0.0196 -5.9367698,-1.49701 -7.1331171,-2.95869 -1.1943168,-1.45919 -1.4488988,-2.88688 -1.4497682,-2.89173 -0.2913903,-2.32741 0.1693171,-3.83415 0.8919663,-4.83819 0.6161028,-0.85601 1.4368529,-1.35828 2.1980552,-1.65457 a 0.33289489,0.33289489 0 0 0 0.050058,0.21454 l 0.044208,0.0689 c 0.5898836,0.92697 1.3717571,1.71485 2.2916724,2.31443 0.027501,0.24217 0.08512,0.50336 0.232093,0.75219 a 0.33289489,0.33289489 0 0 0 0.00201,0.005 c 0.422319,0.69172 1.0761694,0.87137 1.5849934,0.97843 0.508826,0.10706 0.857439,0.15862 1.113004,0.54025 a 0.33289489,0.33289489 0 0 0 0.575357,-0.039 c 0.434955,-0.88342 0.438411,-1.95066 0.05656,-2.88978 a 0.33289489,0.33289489 0 0 0 -0.0221,-0.0442 c -0.143905,-0.2433 -0.268669,-0.52353 -0.496692,-0.7912 -0.209339,-0.24573 -0.518021,-0.45614 -0.947224,-0.58121 -0.340711,-0.52573 -0.744087,-1.00507 -1.198822,-1.4309 0.424397,-0.35841 0.502923,-0.92501 0.492142,-1.45497 -0.01107,-0.5438 -0.121831,-1.1 -0.176833,-1.49398 -0.05684,-0.40711 -0.0078,-0.78875 0.275651,-1.10326 0.283106,-0.31412 0.855173,-0.60105 1.95556,-0.66571 z m 1.351599,1.27034 c -1.276986,0 -2.319624,1.04264 -2.319628,2.31962 -4e-6,1.27699 1.042637,2.31898 2.319628,2.31898 1.276991,0 2.31963,-1.04199 2.319629,-2.31898 -5e-6,-1.27698 -1.042644,-2.31962 -2.319629,-2.31962 z m 0,0.66571 c 0.917203,0 1.653902,0.73671 1.653906,1.65391 2e-6,0.91721 -0.736699,1.65325 -1.653906,1.65325 -0.917207,0 -1.653907,-0.73604 -1.653905,-1.65325 2e-6,-0.9172 0.736702,-1.65391 1.653905,-1.65391 z m -5.2926257,2.55303 c 0.7715348,0.51071 1.4246047,1.17412 1.9412577,1.94125 l -1.150062,1.14487 c -0.7649048,-0.51571 -1.4262713,-1.16676 -1.9360569,-1.93606 0.263552,-0.48763 0.6572552,-0.88648 1.1448612,-1.15006 z m 8.5432257,1.1156 c -1.27698,0 -2.319615,1.04265 -2.319628,2.31963 -3e-6,1.277 1.042637,2.31963 2.319628,2.31963 1.276991,0 2.319632,-1.04263 2.319628,-2.31963 -1.3e-5,-1.27698 -1.042648,-2.31963 -2.319628,-2.31963 z m 0,0.66573 c 0.917199,0 1.653896,0.7367 1.653905,1.6539 2e-6,0.9172 -0.736697,1.65326 -1.653905,1.65326 -0.917207,0 -1.653258,-0.73606 -1.653255,-1.65326 9e-6,-0.9172 0.736057,-1.6539 1.653255,-1.6539 z m -6.045465,0.54154 c 0.26177,0.0876 0.412722,0.20194 0.536998,0.34782 0.142114,0.16683 0.254688,0.40071 0.407626,0.66377 0.265463,0.65773 0.175461,1.36568 -0.03185,1.99522 -0.329165,-0.19163 -0.653336,-0.45149 -0.960877,-0.51619 -0.48781,-0.10266 -0.847643,-0.18404 -1.147462,-0.67093 -0.07846,-0.13286 -0.1159806,-0.30256 -0.1391251,-0.48499 z m -4.6087004,1.14161 c -1.2769851,0 -2.319624,1.04266 -2.3196278,2.31964 3.8e-6,1.27699 1.0426427,2.31703 2.3196278,2.31703 1.2769851,0 2.3170223,-1.04004 2.3170274,-2.31703 -5.1e-6,-1.27698 -1.0400423,-2.31964 -2.3170274,-2.31964 z m 0,0.66573 c 0.9172029,0 1.653902,0.73671 1.6539045,1.65391 -2.5e-6,0.91721 -0.7367016,1.6539 -1.6539045,1.6539 -0.9172029,0 -1.6532516,-0.73669 -1.6532554,-1.6539 3.8e-6,-0.9172 0.7360525,-1.65391 1.6532554,-1.65391 z m 9.2095994,2.4035 c -1.276986,0 -2.319625,1.04263 -2.319629,2.31962 4e-6,1.27698 1.042643,2.31898 2.319629,2.31898 1.276985,0 2.319623,-1.042 2.319628,-2.31898 -5e-6,-1.27699 -1.042643,-2.31962 -2.319628,-2.31962 z m 0,0.66571 c 0.917203,0 1.65325,0.7367 1.653254,1.65391 -4e-6,0.9172 -0.736051,1.65325 -1.653254,1.65325 -0.917203,0 -1.653903,-0.73605 -1.653906,-1.65325 3e-6,-0.91721 0.736703,-1.65391 1.653906,-1.65391 z m -5.600134,0.59942 c -1.2769853,0 -2.3170225,1.04005 -2.3170276,2.31703 -3.8e-6,1.27699 1.040036,2.31962 2.3170276,2.31962 1.276991,0 2.319631,-1.04263 2.319627,-2.31962 -5e-6,-1.27698 -1.042642,-2.31703 -2.319627,-2.31703 z m 0,0.66377 c 0.917203,0 1.653902,0.73606 1.653905,1.65326 3e-6,0.91721 -0.736698,1.6539 -1.653905,1.6539 -0.9172069,0 -1.6532569,-0.73669 -1.6532543,-1.6539 2.5e-6,-0.9172 0.7360512,-1.65326 1.6532543,-1.65326 z" />
  </g>
</svg>
