<?xml version="1.0" ?><svg fill="none" height="64" viewBox="0 0 64 64" width="64" xmlns="http://www.w3.org/2000/svg"><path clip-rule="evenodd" d="M40.7421 14.6964C41.2106 14.9631 41.5 15.4608 41.5 16V48C41.5 48.5392 41.2106 49.0369 40.7421 49.3036C40.2735 49.5703 39.6978 49.5651 39.2342 49.2898L23.5882 40H20C16.9624 40 14.5 37.5376 14.5 34.5V29.5C14.5 26.4624 16.9624 24 20 24H23.5882L39.2342 14.7102C39.6978 14.4349 40.2735 14.4297 40.7421 14.6964ZM38.5 18.6351L24.7658 26.7898C24.5341 26.9274 24.2695 27 24 27H20C18.6193 27 17.5 28.1193 17.5 29.5V34.5C17.5 35.8807 18.6193 37 20 37H24C24.2695 37 24.5341 37.0726 24.7658 37.2102L38.5 45.3649V18.6351Z" fill="black" fill-rule="evenodd"/><path d="M43.8276 25.9502C44.4074 25.3585 45.3571 25.3488 45.9488 25.9286C47.5214 27.4697 48.5 29.6219 48.5 32C48.5 34.3781 47.5214 36.5303 45.9488 38.0714C45.3571 38.6512 44.4074 38.6415 43.8276 38.0499C43.2478 37.4582 43.2574 36.5085 43.8491 35.9286C44.8696 34.9286 45.5 33.5393 45.5 32C45.5 30.4607 44.8696 29.0714 43.8491 28.0714C43.2574 27.4915 43.2478 26.5418 43.8276 25.9502Z" fill="black"/><path d="M49.5294 22.4375C48.9426 21.8527 47.9928 21.8544 47.408 22.4412C46.8233 23.028 46.8249 23.9777 47.4117 24.5625C49.3211 26.4653 50.5 29.0936 50.5 32C50.5 34.9064 49.3211 37.5347 47.4117 39.4375C46.8249 40.0223 46.8233 40.972 47.408 41.5588C47.9928 42.1456 48.9426 42.1473 49.5294 41.5625C51.9805 39.1198 53.5 35.736 53.5 32C53.5 28.264 51.9805 24.8802 49.5294 22.4375Z" fill="black"/></svg>